<?xml version="1.0" standalone="no"?>
<!DOCTYPE svg PUBLIC "-//W3C//DTD SVG 20010904//EN"
 "http://www.w3.org/TR/2001/REC-SVG-20010904/DTD/svg10.dtd">
<svg version="1.0" xmlns="http://www.w3.org/2000/svg"
 width="400.000000pt" height="400.000000pt" viewBox="0 0 400.000000 400.000000"
 preserveAspectRatio="xMidYMid meet">

<g transform="translate(0.000000,400.000000) scale(0.100000,-0.100000)"
fill="#000000" stroke="none">
<path d="M1760 3985 c-356 -44 -698 -184 -985 -404 -85 -64 -256 -232 -328
-321 -489 -606 -584 -1441 -243 -2135 110 -225 228 -387 407 -560 168 -162
302 -257 514 -361 679 -334 1490 -251 2100 215 85 64 256 232 328 321 285 353
447 810 447 1260 0 450 -162 907 -447 1260 -72 89 -243 257 -328 321 -419 321
-952 467 -1465 404z m267 -1248 c27 -14 65 -43 83 -64 55 -62 78 -67 168 -36
97 33 243 37 337 9 146 -43 292 -161 354 -285 66 -131 71 -170 71 -603 0 -427
-2 -443 -59 -472 -38 -20 -64 -20 -105 -1 -62 30 -61 20 -66 480 l-5 420 -25
50 c-59 121 -170 195 -303 203 l-77 5 41 -62 c112 -168 129 -384 45 -566 -56
-122 -183 -250 -310 -315 l-64 -32 -4 -64 c-3 -53 -9 -68 -33 -94 -71 -74
-195 -28 -195 73 l0 27 -82 0 c-237 0 -420 71 -568 220 -96 95 -149 184 -175
291 -32 137 -9 312 57 428 40 71 175 205 251 250 69 40 89 36 137 -30 l30 -42
200 -5 c127 -2 200 -1 200 6 0 5 -18 12 -39 16 -49 8 -101 62 -101 107 0 41
25 85 58 104 37 21 117 13 179 -18z"/>
<path d="M1851 2711 c-45 -45 -11 -131 52 -131 14 0 41 -13 59 -28 52 -44 81
-40 119 14 l31 46 -19 27 c-39 51 -98 84 -162 89 -50 4 -62 1 -80 -17z"/>
<path d="M2322 2614 c-82 -22 -89 -27 -56 -49 15 -10 46 -35 69 -56 41 -38 44
-39 106 -36 140 8 270 -60 348 -181 57 -89 61 -126 61 -552 1 -412 0 -409 51
-429 30 -11 83 8 93 34 3 9 6 198 6 419 0 324 -3 413 -15 459 -48 186 -205
343 -390 392 -73 19 -202 18 -273 -1z"/>
<path d="M1360 2558 c-268 -184 -358 -476 -230 -740 106 -217 343 -358 625
-373 49 -3 98 -2 108 1 16 5 17 30 17 334 l0 328 -32 6 c-44 10 -66 10 -110 1
-44 -9 -88 14 -88 45 0 25 12 25 35 0 21 -24 44 -25 71 -6 18 14 18 16 -18 46
-21 17 -38 40 -38 50 0 40 127 51 176 15 18 -13 17 -16 -25 -55 -42 -40 -44
-43 -26 -56 39 -29 52 -18 69 56 8 38 24 87 36 109 14 28 20 60 20 105 l0 65
-177 1 c-98 1 -197 2 -220 1 -41 -1 -44 1 -75 49 -39 59 -55 62 -118 18z m52
-54 c-6 -31 -24 -45 -51 -42 -31 4 -35 31 -6 36 11 3 24 11 28 19 12 20 33 10
29 -13z m61 -220 c46 -23 67 -44 67 -66 0 -33 -29 -33 -64 1 -42 41 -82 42
-121 1 -28 -29 -68 -40 -79 -21 -9 14 44 72 79 87 41 18 80 17 118 -2z m-145
-194 c50 -14 72 -26 72 -37 0 -17 -7 -16 -122 18 -38 11 -68 23 -68 28 0 14
13 21 29 17 9 -3 49 -14 89 -26z m37 -100 c0 -21 -140 -46 -166 -29 -21 13 -4
21 68 35 81 14 98 13 98 -6z m23 -62 c-5 -15 -125 -76 -151 -77 -35 -2 -11 24
52 57 67 33 106 41 99 20z"/>
<path d="M2096 2532 c-22 -36 -31 -41 -68 -44 l-42 -3 3 -55 c2 -44 -5 -72
-31 -135 l-33 -80 -3 -382 -4 -383 33 7 c18 3 51 12 74 18 l40 12 5 344 c3
189 9 350 13 356 6 9 2 12 -15 10 -39 -4 -31 42 12 70 19 12 62 49 95 82 33
32 80 69 105 81 25 12 47 24 49 26 7 7 -32 45 -78 77 -40 27 -47 29 -75 18
-26 -9 -33 -9 -43 5 -10 14 -15 11 -37 -24z m104 -22 c6 -11 19 -19 28 -18 10
2 17 -3 17 -12 0 -19 -41 -25 -61 -10 -16 14 -19 60 -4 60 5 0 14 -9 20 -20z"/>
<path d="M2303 2403 c-28 -14 -68 -43 -89 -64 -34 -34 -35 -39 -18 -44 47 -15
87 -41 100 -67 13 -25 12 -28 -6 -38 -17 -9 -26 -5 -56 25 -26 27 -43 35 -62
33 -53 -6 -57 -30 -60 -400 -2 -186 0 -338 4 -338 3 0 34 15 68 32 81 44 212
174 254 254 65 126 81 288 41 420 -19 64 -102 214 -117 214 -4 -1 -30 -12 -59
-27z m67 -302 c0 -9 -153 -61 -179 -61 -9 0 -17 29 -8 30 1 0 27 9 57 20 59
20 130 26 130 11z m15 -122 c16 -16 -14 -27 -59 -22 -78 10 -110 19 -114 32
-4 11 11 13 79 7 46 -4 88 -12 94 -17z m-94 -71 c63 -33 87 -59 52 -57 -26 1
-146 62 -151 77 -7 21 32 13 99 -20z"/>
<path d="M1755 2230 c10 -11 26 -20 35 -20 9 0 25 9 35 20 18 20 17 20 -35 20
-52 0 -53 0 -35 -20z"/>
<path d="M1983 1432 c-62 -15 -63 -16 -63 -49 0 -70 74 -100 128 -50 17 16 22
32 22 69 0 54 3 53 -87 30z"/>
</g>
</svg>
